<?xml version="1.0" encoding="UTF-8" standalone="no"?>
<svg
   width="64"
   height="64"
   version="1.1"
   id="svg1"
   xmlns="http://www.w3.org/2000/svg"
   xmlns:svg="http://www.w3.org/2000/svg">
  <defs
     id="defs1">
    <linearGradient
       id="swatch1">
      <stop
         style="stop-color:#8c6794;stop-opacity:1;"
         offset="0"
         id="stop1" />
    </linearGradient>
  </defs>
  <path
     d="M31.994-.006c-2.85 6.985-4.568 11.554-7.74 18.332 1.945 2.062 4.332 4.462 8.2 7.174-4.168-1.715-7-3.437-9.136-5.224-4.06 8.47-10.42 20.538-23.327 43.73C10.145 58.15 18 54.54 25.338 53.16c-.315-1.354-.494-2.818-.48-4.345l.012-.325c.16-6.5 3.542-11.498 7.547-11.158s7.118 5.886 6.957 12.386a18.36 18.36 0 0 1-.409 3.491c7.25 1.418 15.03 5.02 25.037 10.797l-5.42-10.026c-2.65-2.053-5.413-4.726-11.05-7.62 3.875 1.007 6.65 2.168 8.8 3.467-17.1-31.84-18.486-36.07-24.35-49.833z"
     fill="#1793d1"
     fill-rule="evenodd"
     id="path1"
     style="stroke:none;stroke-opacity:1;fill:#4c91bb;fill-opacity:1;stroke-width:0.5;stroke-dasharray:none" />
</svg>
